<?xml version="1.0" encoding="UTF-8"?>
<svg width="10px" height="24px" viewBox="0 0 10 24" version="1.1" xmlns="http://www.w3.org/2000/svg" xmlns:xlink="http://www.w3.org/1999/xlink">
    <!-- Generator: Sketch 52.2 (67145) - http://www.bohemiancoding.com/sketch -->
    <title>Combined Shape</title>
    <desc>Created with Sketch.</desc>
    <g id="Page-1" stroke="none" stroke-width="1" fill="none" fill-rule="evenodd">
        <g id="viz-modified" transform="translate(-1612.000000, -4535.000000)" fill="#FFFFFF">
            <path d="M1617,4543 C1619.78061,4543 1622,4545.2 1622,4547.925 L1622,4550.05 C1622,4551.1 1621.13265,4551.95 1620.06122,4551.95 L1619.72959,4551.95 L1619.72959,4556.325 C1619.72959,4557.8 1618.5051,4559 1617,4559 C1615.4949,4559 1614.27041,4557.8 1614.27041,4556.325 L1614.27041,4551.925 L1613.93878,4551.925 C1612.86735,4551.925 1612,4551.075 1612,4550.025 L1612,4547.9 C1612,4545.2 1614.21939,4543 1617,4543 Z M1616.93618,4540.99968 C1615.27681,4540.97738 1613.97484,4539.77304 1614.00037,4538.34569 L1614.0259,4537.5651 C1614.05143,4536.11544 1615.42998,4534.97802 1617.06382,4535.00032 C1618.72319,4535.02262 1620.02516,4536.22696 1619.99963,4537.65431 L1619.9741,4538.4349 C1619.94857,4539.88456 1618.57002,4541.02198 1616.93618,4540.99968 Z" id="Combined-Shape"></path>
        </g>
    </g>
</svg>