<?xml version="1.0" encoding="UTF-8"?>
<svg width="166px" height="107px" viewBox="0 0 166 107" version="1.1" xmlns="http://www.w3.org/2000/svg" xmlns:xlink="http://www.w3.org/1999/xlink">
    <!-- Generator: Sketch 52.2 (67145) - http://www.bohemiancoding.com/sketch -->
    <title>Group 4</title>
    <desc>Created with Sketch.</desc>
    <defs>
        <linearGradient x1="2.27149566%" y1="0%" x2="100%" y2="0%" id="linearGradient-1">
            <stop stop-color="#595499" offset="0%"></stop>
            <stop stop-color="#141332" offset="100%"></stop>
        </linearGradient>
    </defs>
    <g id="Page-1" stroke="none" stroke-width="1" fill="none" fill-rule="evenodd">
        <g id="viz-modified" transform="translate(-1304.000000, -4316.000000)">
            <g id="Group-4" transform="translate(1304.000000, 4311.000000)">
                <circle id="Oval" fill="#D8D8D8" cx="10" cy="53" r="10"></circle>
                <circle id="Oval-Copy" fill="#8ED3F2" cx="10.5" cy="13.5" r="6.5"></circle>
                <g id="Group-3" transform="translate(0.000000, 82.000000)">
                    <rect id="Rectangle" fill="url(#linearGradient-1)" transform="translate(81.000000, 23.000000) scale(-1, 1) translate(-81.000000, -23.000000) " x="0" y="16" width="162" height="14" rx="7"></rect>
                    <path d="M9,8 C11.7806122,8 14,10.2 14,12.925 L14,15.05 C14,16.1 13.1326531,16.95 12.0612245,16.95 L11.7295918,16.95 L11.7295918,21.325 C11.7295918,22.8 10.505102,24 9,24 C7.49489796,24 6.27040816,22.8 6.27040816,21.325 L6.27040816,16.925 L5.93877551,16.925 C4.86734694,16.925 4,16.075 4,15.025 L4,12.9 C4,10.2 6.21938776,8 9,8 Z M8.93617807,5.99967757 C7.27680776,5.97737514 5.9748403,4.77304362 6.00036907,3.34568775 L6.02589784,2.56510251 C6.05142662,1.1154442 7.42998041,-0.0219800083 9.06382193,0.000322427159 C10.7231922,0.0226248626 12.0251597,1.22695638 11.9996309,2.65431225 L11.9741022,3.43489749 C11.9485734,4.8845558 10.5700196,6.02198001 8.93617807,5.99967757 Z" id="Combined-Shape" fill="#FFFFFF"></path>
                    <g id="Group-2" transform="translate(116.000000, 0.000000)" fill="#FFFFFF">
                        <path d="M21,8 C23.7806122,8 26,10.2 26,12.925 L26,15.05 C26,16.1 25.1326531,16.95 24.0612245,16.95 L23.7295918,16.95 L23.7295918,21.325 C23.7295918,22.8 22.505102,24 21,24 C19.494898,24 18.2704082,22.8 18.2704082,21.325 L18.2704082,16.925 L17.9387755,16.925 C16.8673469,16.925 16,16.075 16,15.025 L16,12.9 C16,10.2 18.2193878,8 21,8 Z M20.9361781,5.99967757 C19.2768078,5.97737514 17.9748403,4.77304362 18.0003691,3.34568775 L18.0258978,2.56510251 C18.0514266,1.1154442 19.4299804,-0.0219800083 21.0638219,0.000322427159 C22.7231922,0.0226248626 24.0251597,1.22695638 23.9996309,2.65431225 L23.9741022,3.43489749 C23.9485734,4.8845558 22.5700196,6.02198001 20.9361781,5.99967757 Z" id="Combined-Shape-Copy"></path>
                        <path d="M37,8 C39.7806122,8 42,10.2 42,12.925 L42,15.05 C42,16.1 41.1326531,16.95 40.0612245,16.95 L39.7295918,16.95 L39.7295918,21.325 C39.7295918,22.8 38.505102,24 37,24 C35.494898,24 34.2704082,22.8 34.2704082,21.325 L34.2704082,16.925 L33.9387755,16.925 C32.8673469,16.925 32,16.075 32,15.025 L32,12.9 C32,10.2 34.2193878,8 37,8 Z M36.9361781,5.99967757 C35.2768078,5.97737514 33.9748403,4.77304362 34.0003691,3.34568775 L34.0258978,2.56510251 C34.0514266,1.1154442 35.4299804,-0.0219800083 37.0638219,0.000322427159 C38.7231922,0.0226248626 40.0251597,1.22695638 39.9996309,2.65431225 L39.9741022,3.43489749 C39.9485734,4.8845558 38.5700196,6.02198001 36.9361781,5.99967757 Z" id="Combined-Shape-Copy-2"></path>
                        <path d="M5,8 C7.78061224,8 10,10.2 10,12.925 L10,15.05 C10,16.1 9.13265306,16.95 8.06122449,16.95 L7.72959184,16.95 L7.72959184,21.325 C7.72959184,22.8 6.50510204,24 5,24 C3.49489796,24 2.27040816,22.8 2.27040816,21.325 L2.27040816,16.925 L1.93877551,16.925 C0.867346939,16.925 0,16.075 0,15.025 L0,12.9 C0,10.2 2.21938776,8 5,8 Z M4.93617807,5.99967757 C3.27680776,5.97737514 1.9748403,4.77304362 2.00036907,3.34568775 L2.02589784,2.56510251 C2.05142662,1.1154442 3.42998041,-0.0219800083 5.06382193,0.000322427159 C6.72319224,0.0226248626 8.0251597,1.22695638 7.99963093,2.65431225 L7.97410216,3.43489749 C7.94857338,4.8845558 6.57001959,6.02198001 4.93617807,5.99967757 Z" id="Combined-Shape-Copy-3"></path>
                    </g>
                </g>
                <text id="UFO-Sighting" font-family="OpenSans, Open Sans" font-size="20" font-weight="normal" fill="#D3D1E4">
                    <tspan x="39" y="21">UFO Sighting</tspan>
                </text>
                <text id="Air-force-base" font-family="OpenSans, Open Sans" font-size="20" font-weight="normal" fill="#D3D1E4">
                    <tspan x="39" y="60">Air force base</tspan>
                </text>
            </g>
        </g>
    </g>
</svg>