<?xml version="1.0" encoding="UTF-8"?>
<svg width="42px" height="24px" viewBox="0 0 42 24" version="1.1" xmlns="http://www.w3.org/2000/svg" xmlns:xlink="http://www.w3.org/1999/xlink">
    <!-- Generator: Sketch 52.2 (67145) - http://www.bohemiancoding.com/sketch -->
    <title>Group 2</title>
    <desc>Created with Sketch.</desc>
    <g id="Page-1" stroke="none" stroke-width="1" fill="none" fill-rule="evenodd">
        <g id="viz-modified" transform="translate(-1727.000000, -4535.000000)" fill="#FFFFFF">
            <g id="Group-2" transform="translate(1727.000000, 4535.000000)">
                <path d="M21,8 C23.7806122,8 26,10.2 26,12.925 L26,15.05 C26,16.1 25.1326531,16.95 24.0612245,16.95 L23.7295918,16.95 L23.7295918,21.325 C23.7295918,22.8 22.505102,24 21,24 C19.494898,24 18.2704082,22.8 18.2704082,21.325 L18.2704082,16.925 L17.9387755,16.925 C16.8673469,16.925 16,16.075 16,15.025 L16,12.9 C16,10.2 18.2193878,8 21,8 Z M20.9361781,5.99967757 C19.2768078,5.97737514 17.9748403,4.77304362 18.0003691,3.34568775 L18.0258978,2.56510251 C18.0514266,1.1154442 19.4299804,-0.0219800083 21.0638219,0.000322427159 C22.7231922,0.0226248626 24.0251597,1.22695638 23.9996309,2.65431225 L23.9741022,3.43489749 C23.9485734,4.8845558 22.5700196,6.02198001 20.9361781,5.99967757 Z" id="Combined-Shape-Copy"></path>
                <path d="M37,8 C39.7806122,8 42,10.2 42,12.925 L42,15.05 C42,16.1 41.1326531,16.95 40.0612245,16.95 L39.7295918,16.95 L39.7295918,21.325 C39.7295918,22.8 38.505102,24 37,24 C35.494898,24 34.2704082,22.8 34.2704082,21.325 L34.2704082,16.925 L33.9387755,16.925 C32.8673469,16.925 32,16.075 32,15.025 L32,12.9 C32,10.2 34.2193878,8 37,8 Z M36.9361781,5.99967757 C35.2768078,5.97737514 33.9748403,4.77304362 34.0003691,3.34568775 L34.0258978,2.56510251 C34.0514266,1.1154442 35.4299804,-0.0219800083 37.0638219,0.000322427159 C38.7231922,0.0226248626 40.0251597,1.22695638 39.9996309,2.65431225 L39.9741022,3.43489749 C39.9485734,4.8845558 38.5700196,6.02198001 36.9361781,5.99967757 Z" id="Combined-Shape-Copy-2"></path>
                <path d="M5,8 C7.78061224,8 10,10.2 10,12.925 L10,15.05 C10,16.1 9.13265306,16.95 8.06122449,16.95 L7.72959184,16.95 L7.72959184,21.325 C7.72959184,22.8 6.50510204,24 5,24 C3.49489796,24 2.27040816,22.8 2.27040816,21.325 L2.27040816,16.925 L1.93877551,16.925 C0.867346939,16.925 0,16.075 0,15.025 L0,12.9 C0,10.2 2.21938776,8 5,8 Z M4.93617807,5.99967757 C3.27680776,5.97737514 1.9748403,4.77304362 2.00036907,3.34568775 L2.02589784,2.56510251 C2.05142662,1.1154442 3.42998041,-0.0219800083 5.06382193,0.000322427159 C6.72319224,0.0226248626 8.0251597,1.22695638 7.99963093,2.65431225 L7.97410216,3.43489749 C7.94857338,4.8845558 6.57001959,6.02198001 4.93617807,5.99967757 Z" id="Combined-Shape-Copy-3"></path>
            </g>
        </g>
    </g>
</svg>