<svg xmlns="http://www.w3.org/2000/svg" viewBox="0 0 125.17 113.42"><defs><style>.cls-1{fill:#9bcff0;}.cls-2{fill:#9376a7;}.cls-3{fill:#524ba5;}.cls-4{fill:#e4e7e7;}.cls-5{fill:#c4b0e3;}.cls-6{fill:#fff;}.cls-7{fill:#324d5b;}</style></defs><title>Asset 1</title><g id="Layer_2" data-name="Layer 2"><g id="Layer_1-2" data-name="Layer 1"><path class="cls-1" d="M62.58,90a11.74,11.74,0,1,0,11.74,11.74A11.74,11.74,0,0,0,62.58,90Zm31.29-7.82A11.74,11.74,0,1,0,105.6,93.87,11.73,11.73,0,0,0,93.87,82.13Zm-62.58,0A11.74,11.74,0,1,0,43,93.87,11.74,11.74,0,0,0,31.29,82.13Z"/><path class="cls-2" d="M26.61,52.16c19.83-12.22,52-12.22,71.82,0s19.84,32,0,44.26-52,12.22-71.82,0S6.77,64.39,26.61,52.16Z"/><path class="cls-3" d="M18.33,30.43c24.44-14.51,64.07-14.51,88.51,0s24.44,38,0,52.54S42.77,97.49,18.33,83-6.11,44.94,18.33,30.43Z"/><path class="cls-4" d="M62.58,0a39.11,39.11,0,0,1,39.11,39.11c0,21.6-17.51,31.29-39.11,31.29S23.47,60.71,23.47,39.11A39.11,39.11,0,0,1,62.58,0Z"/><path class="cls-5" d="M84.87,66a23.28,23.28,0,0,0,1.18-7.31V39.11a23.47,23.47,0,1,0-46.93,0V58.66A23.62,23.62,0,0,0,40.29,66c6.33,3,14,4.42,22.29,4.42S78.54,69,84.87,66Z"/><path class="cls-6" d="M62.58,31.29A11.74,11.74,0,1,1,50.85,43,11.74,11.74,0,0,1,62.58,31.29Z"/><path class="cls-7" d="M62.58,39.11A3.91,3.91,0,1,1,58.67,43,3.9,3.9,0,0,1,62.58,39.11Z"/></g></g></svg>